# xmcd
#
# Track frame offsets:
#	150
#	16590
#	31965
#	48499
#
# Disc length: 1018 seconds
#
# Revision: 0
# Processed by: cddbd v1.5.2PL0 Copyright (c) Steve Scherf et al.
# Submitted via: audiograbber 1.83.01
#
DISCID=2303f804
DTITLE=Mayor's Destiny - Cross Your Heart
DYEAR=2008
DGENRE=Country
TTITLE0=Cross Your Heart (Radio Edition)
TTITLE1=She Get's High
TTITLE2=Cross Your Heart (Unplugged Version)
TTITLE3=Cross Your Heart (Extended Version)
EXTD=
EXTT0=
EXTT1=
EXTT2=
EXTT3=
PLAYORDER=
